# xmcd CD database file
# Copyright (C) 1996 Ti Kan
#
# Track frame offsets:
#  150
#  13065
#  30465
#  42925
#  60345
#  82135
#  96552
#  115197
#  127027
#  143437
#
# Disc length: 2076 seconds
#
# Revision: 1
# Processed by: cddbd v1.4b41PL1 Copyright (c) Steve Scherf et al.
# Submitted via: CDWizzard Release:4.12
#
DISCID=81081a0a
DTITLE=Unknown - Romantic Saxaphone Volume 1
DYEAR=1900
DGENRE=
TTITLE0=Harlem Nocturne
TTITLE1=You Needed Me
TTITLE2=When A Man Loves a Woman
TTITLE3=Evergreen
TTITLE4=Summertime
TTITLE5=Unchained Melody
TTITLE6=When I Need You
TTITLE7=Yesterday
TTITLE8=A Whiter Shade of Pale
TTITLE9=Are You Lonesome Tonight
EXTD=
EXTT0=
EXTT1=
EXTT2=
EXTT3=
EXTT4=
EXTT5=
EXTT6=
EXTT7=
EXTT8=
EXTT9=
PLAYORDER=
